<svg width="110" height="47" viewBox="0 0 110 47" fill="none" xmlns="http://www.w3.org/2000/svg">
<circle cx="23.5" cy="23.5" r="22.5" fill="white" stroke="#FCC26B" stroke-width="2"/>
<mask id="path-2-inside-1_2012_75" fill="white">
<path d="M37.6675 35.7589L33.281 32.5414C31.0625 30.914 29.7381 28.3004 29.7381 25.5491V24.8549L35.2093 21.4309C36.2167 20.8006 36.5232 19.4683 35.893 18.4606C35.2624 17.453 33.9294 17.1471 32.9227 17.7773L29.7381 19.7706V17.777C29.7381 13.2749 26.0756 9.61243 21.5735 9.61243C17.0713 9.61243 13.4089 13.2752 13.4089 17.777V18.9951L11.4631 17.7773C10.4558 17.1467 9.12343 17.4536 8.49316 18.4606C7.86288 19.468 8.16946 20.8003 9.17678 21.4309L13.4092 24.0798V25.5646C13.4092 31.514 18.2492 36.354 24.1986 36.354H37.4733C37.6158 36.354 37.7416 36.2624 37.7861 36.1274C37.8299 35.9917 37.7825 35.8432 37.6675 35.7589ZM9.52583 20.8727C8.8264 20.4348 8.61335 19.5098 9.05131 18.8103C9.33484 18.3569 9.82319 18.1083 10.3221 18.1083C10.5931 18.1083 10.8674 18.1817 11.1134 18.3358L13.4086 19.7722V23.3026L9.52583 20.8727ZM24.1983 35.6954C18.6121 35.6954 14.0678 31.1507 14.0678 25.5649V23.8977V19.5901V17.777C14.0678 13.6381 17.4349 10.271 21.5738 10.271C25.7124 10.271 29.0798 13.6381 29.0798 17.777V20.1825L26.0236 22.0954C25.8692 22.1919 25.8227 22.3951 25.9192 22.5492C26.0154 22.7033 26.2185 22.7494 26.373 22.6536L33.2727 18.3352C33.9728 17.8979 34.8982 18.1106 35.3355 18.8097C35.7731 19.5094 35.5604 20.4344 34.8609 20.8721L27.9602 25.1908C27.8058 25.2873 27.7593 25.4905 27.8558 25.6446C27.8775 25.6795 27.9062 25.7068 27.9375 25.7302C27.9441 25.7351 27.95 25.7397 27.9569 25.744C27.9888 25.7648 28.0228 25.7809 28.0593 25.7895C28.0626 25.7901 28.0662 25.7901 28.0695 25.7908C28.0913 25.7951 28.1133 25.799 28.1354 25.799C28.1469 25.799 28.1584 25.7954 28.1703 25.7941C28.1805 25.7931 28.1904 25.7921 28.2003 25.7898C28.2375 25.7822 28.2737 25.7704 28.3079 25.7493C28.3086 25.749 28.3093 25.749 28.3099 25.7486L29.0798 25.2669V25.5484C29.0798 28.5085 30.5047 31.321 32.8917 33.0719L36.4676 35.6944H24.1983V35.6954Z"/>
</mask>
<path d="M37.6675 35.7589L33.281 32.5414C31.0625 30.914 29.7381 28.3004 29.7381 25.5491V24.8549L35.2093 21.4309C36.2167 20.8006 36.5232 19.4683 35.893 18.4606C35.2624 17.453 33.9294 17.1471 32.9227 17.7773L29.7381 19.7706V17.777C29.7381 13.2749 26.0756 9.61243 21.5735 9.61243C17.0713 9.61243 13.4089 13.2752 13.4089 17.777V18.9951L11.4631 17.7773C10.4558 17.1467 9.12343 17.4536 8.49316 18.4606C7.86288 19.468 8.16946 20.8003 9.17678 21.4309L13.4092 24.0798V25.5646C13.4092 31.514 18.2492 36.354 24.1986 36.354H37.4733C37.6158 36.354 37.7416 36.2624 37.7861 36.1274C37.8299 35.9917 37.7825 35.8432 37.6675 35.7589ZM9.52583 20.8727C8.8264 20.4348 8.61335 19.5098 9.05131 18.8103C9.33484 18.3569 9.82319 18.1083 10.3221 18.1083C10.5931 18.1083 10.8674 18.1817 11.1134 18.3358L13.4086 19.7722V23.3026L9.52583 20.8727ZM24.1983 35.6954C18.6121 35.6954 14.0678 31.1507 14.0678 25.5649V23.8977V19.5901V17.777C14.0678 13.6381 17.4349 10.271 21.5738 10.271C25.7124 10.271 29.0798 13.6381 29.0798 17.777V20.1825L26.0236 22.0954C25.8692 22.1919 25.8227 22.3951 25.9192 22.5492C26.0154 22.7033 26.2185 22.7494 26.373 22.6536L33.2727 18.3352C33.9728 17.8979 34.8982 18.1106 35.3355 18.8097C35.7731 19.5094 35.5604 20.4344 34.8609 20.8721L27.9602 25.1908C27.8058 25.2873 27.7593 25.4905 27.8558 25.6446C27.8775 25.6795 27.9062 25.7068 27.9375 25.7302C27.9441 25.7351 27.95 25.7397 27.9569 25.744C27.9888 25.7648 28.0228 25.7809 28.0593 25.7895C28.0626 25.7901 28.0662 25.7901 28.0695 25.7908C28.0913 25.7951 28.1133 25.799 28.1354 25.799C28.1469 25.799 28.1584 25.7954 28.1703 25.7941C28.1805 25.7931 28.1904 25.7921 28.2003 25.7898C28.2375 25.7822 28.2737 25.7704 28.3079 25.7493C28.3086 25.749 28.3093 25.749 28.3099 25.7486L29.0798 25.2669V25.5484C29.0798 28.5085 30.5047 31.321 32.8917 33.0719L36.4676 35.6944H24.1983V35.6954Z" fill="#535353"/>
<path d="M37.6675 35.7589L40.0334 32.5336L40.0334 32.5336L37.6675 35.7589ZM33.281 32.5414L30.915 35.7666L30.9152 35.7667L33.281 32.5414ZM29.7381 24.8549L27.6161 21.4642L25.7381 22.6395V24.8549H29.7381ZM35.2093 21.4309L33.0877 18.04L33.0873 18.0401L35.2093 21.4309ZM35.893 18.4606L39.2842 16.3394L39.2837 16.3386L35.893 18.4606ZM32.9227 17.7773L35.0449 21.168L35.0454 21.1677L32.9227 17.7773ZM29.7381 19.7706H25.7381V26.993L31.8602 23.1612L29.7381 19.7706ZM13.4089 18.9951L11.2869 22.3858L17.4089 26.2171V18.9951H13.4089ZM11.4631 17.7773L9.3406 21.1678L9.34108 21.1681L11.4631 17.7773ZM8.49316 18.4606L5.10253 16.3384L5.10222 16.3389L8.49316 18.4606ZM9.17678 21.4309L7.05429 24.8213L7.05472 24.8216L9.17678 21.4309ZM13.4092 24.0798H17.4092V21.8644L15.5313 20.6891L13.4092 24.0798ZM37.7861 36.1274L41.5854 37.3784L41.5891 37.3673L41.5927 37.3562L37.7861 36.1274ZM9.52583 20.8727L7.40297 24.2629L7.40385 24.2635L9.52583 20.8727ZM9.05131 18.8103L12.4415 20.9332L12.4429 20.931L9.05131 18.8103ZM11.1134 18.3358L8.98971 21.7255L8.99136 21.7266L11.1134 18.3358ZM13.4086 19.7722H17.4086V17.5568L15.5306 16.3815L13.4086 19.7722ZM13.4086 23.3026L11.2866 26.6934L17.4086 30.5246V23.3026H13.4086ZM24.1983 35.6954V39.6954H28.1983V35.6954H24.1983ZM29.0798 20.1825L31.202 23.5731L33.0798 22.3978V20.1825H29.0798ZM26.0236 22.0954L28.143 25.4878L28.1458 25.486L26.0236 22.0954ZM25.9192 22.5492L29.3128 20.4318L29.3096 20.4266L25.9192 22.5492ZM26.373 22.6536L28.4819 26.0525L28.4885 26.0484L28.4951 26.0442L26.373 22.6536ZM33.2727 18.3352L31.1536 14.9426L31.1506 14.9445L33.2727 18.3352ZM35.3355 18.8097L38.7268 16.6887L38.7266 16.6884L35.3355 18.8097ZM34.8609 20.8721L32.7392 17.4812L32.7389 17.4814L34.8609 20.8721ZM27.9602 25.1908L30.0795 28.5832L30.0822 28.5815L27.9602 25.1908ZM27.8558 25.6446L31.2514 23.5303L31.2462 23.522L27.8558 25.6446ZM27.9375 25.7302L30.3375 22.5302L30.3321 22.5261L27.9375 25.7302ZM27.9569 25.744L30.1356 22.3895L30.0992 22.3658L30.0623 22.343L27.9569 25.744ZM28.0593 25.7895L27.1471 29.6841L27.2107 29.699L27.2749 29.7118L28.0593 25.7895ZM28.0695 25.7908L27.2851 29.7131L27.2965 29.7154L28.0695 25.7908ZM28.1703 25.7941L27.785 21.8127L27.7568 21.8154L27.7286 21.8185L28.1703 25.7941ZM28.2003 25.7898L27.4025 21.8702L27.3467 21.8815L27.2913 21.8944L28.2003 25.7898ZM28.3079 25.7493L26.5191 22.1716L26.3615 22.2503L26.2115 22.3427L28.3079 25.7493ZM28.3099 25.7486L30.0988 29.3263L30.2697 29.2409L30.4317 29.1395L28.3099 25.7486ZM29.0798 25.2669H33.0798V18.0453L26.958 21.876L29.0798 25.2669ZM32.8917 33.0719L30.526 36.2973L30.5262 36.2974L32.8917 33.0719ZM36.4676 35.6944V39.6944H48.6852L38.8332 32.4689L36.4676 35.6944ZM24.1983 35.6944V31.6944H20.1983V35.6944H24.1983ZM40.0334 32.5336L35.6468 29.316L30.9152 35.7667L35.3017 38.9843L40.0334 32.5336ZM35.6469 29.3161C34.4554 28.4421 33.7381 27.0261 33.7381 25.5491H25.7381C25.7381 29.5746 27.6696 33.3859 30.915 35.7666L35.6469 29.3161ZM33.7381 25.5491V24.8549H25.7381V25.5491H33.7381ZM31.8601 28.2457L37.3313 24.8216L33.0873 18.0401L27.6161 21.4642L31.8601 28.2457ZM37.331 24.8218C40.212 23.0192 41.0852 19.2187 39.2842 16.3394L32.5017 20.5818C31.9613 19.7178 32.2213 18.582 33.0877 18.04L37.331 24.8218ZM39.2837 16.3386C37.4804 13.457 33.6783 12.5849 30.8 14.387L35.0454 21.1677C34.1804 21.7092 33.0444 21.4489 32.5022 20.5826L39.2837 16.3386ZM30.8005 14.3867L27.6159 16.3799L31.8602 23.1612L35.0449 21.168L30.8005 14.3867ZM33.7381 19.7706V17.777H25.7381V19.7706H33.7381ZM33.7381 17.777C33.7381 11.0657 28.2848 5.61243 21.5735 5.61243V13.6124C23.8665 13.6124 25.7381 15.484 25.7381 17.777H33.7381ZM21.5735 5.61243C14.8621 5.61243 9.4089 11.0662 9.4089 17.777H17.4089C17.4089 15.4842 19.2806 13.6124 21.5735 13.6124V5.61243ZM9.4089 17.777V18.9951H17.4089V17.777H9.4089ZM15.5309 15.6043L13.5851 14.3866L9.34108 21.1681L11.2869 22.3858L15.5309 15.6043ZM13.5856 14.3869C10.705 12.5836 6.9045 13.4594 5.10253 16.3384L11.8838 20.5828C11.3424 21.4478 10.2066 21.7099 9.3406 21.1678L13.5856 14.3869ZM5.10222 16.3389C3.30029 19.2188 4.17492 23.0188 7.05429 24.8213L11.2993 18.0405C12.164 18.5818 12.4255 19.7171 11.8841 20.5823L5.10222 16.3389ZM7.05472 24.8216L11.2872 27.4705L15.5313 20.6891L11.2988 18.0402L7.05472 24.8216ZM9.40923 24.0798V25.5646H17.4092V24.0798H9.40923ZM9.40923 25.5646C9.40923 33.7231 16.0401 40.354 24.1986 40.354V32.354C20.4584 32.354 17.4092 29.3048 17.4092 25.5646H9.40923ZM24.1986 40.354H37.4733V32.354H24.1986V40.354ZM37.4733 40.354C39.3501 40.354 41.0031 39.1471 41.5854 37.3784L33.9867 34.8764C34.4802 33.3777 35.8816 32.354 37.4733 32.354V40.354ZM41.5927 37.3562C42.1614 35.5943 41.5496 33.6458 40.0334 32.5336L35.3017 38.9843C34.0153 38.0407 33.4983 36.3891 33.9795 34.8986L41.5927 37.3562ZM11.6487 17.4825C12.8199 18.2159 13.177 19.7586 12.4415 20.9332L5.66112 16.6875C4.04966 19.261 4.83289 22.6536 7.40297 24.2629L11.6487 17.4825ZM12.4429 20.931C11.9617 21.7006 11.1372 22.1083 10.3221 22.1083V14.1083C8.50913 14.1083 6.70802 15.0132 5.65974 16.6897L12.4429 20.931ZM10.3221 22.1083C9.86746 22.1083 9.40156 21.9836 8.98971 21.7255L13.237 14.9461C12.3332 14.3799 11.3187 14.1083 10.3221 14.1083V22.1083ZM8.99136 21.7266L11.2866 23.163L15.5306 16.3815L13.2354 14.9451L8.99136 21.7266ZM9.40857 19.7722V23.3026H17.4086V19.7722H9.40857ZM15.5306 19.9119L11.6478 17.482L7.40385 24.2635L11.2866 26.6934L15.5306 19.9119ZM24.1983 31.6954C20.8213 31.6954 18.0678 28.9417 18.0678 25.5649H10.0678C10.0678 33.3598 16.4029 39.6954 24.1983 39.6954V31.6954ZM18.0678 25.5649V23.8977H10.0678V25.5649H18.0678ZM18.0678 23.8977V19.5901H10.0678V23.8977H18.0678ZM18.0678 19.5901V17.777H10.0678V19.5901H18.0678ZM18.0678 17.777C18.0678 15.8472 19.644 14.271 21.5738 14.271V6.27102C15.2257 6.27102 10.0678 11.4289 10.0678 17.777H18.0678ZM21.5738 14.271C23.5034 14.271 25.0798 15.8473 25.0798 17.777H33.0798C33.0798 11.4288 27.9214 6.27102 21.5738 6.27102V14.271ZM25.0798 17.777V20.1825H33.0798V17.777H25.0798ZM26.9576 16.7919L23.9014 18.7048L28.1458 25.486L31.202 23.5731L26.9576 16.7919ZM23.9043 18.703C21.8696 19.9742 21.2627 22.6494 22.5289 24.6718L29.3096 20.4266C30.3828 22.1408 29.8688 24.4096 28.143 25.4878L23.9043 18.703ZM22.5256 24.6666C23.8035 26.7148 26.4769 27.2965 28.4819 26.0525L24.2641 19.2547C25.9602 18.2023 28.2272 18.6918 29.3128 20.4318L22.5256 24.6666ZM28.4951 26.0442L35.3949 21.7258L31.1506 14.9445L24.2509 19.2629L28.4951 26.0442ZM35.3919 21.7277C34.2234 22.4576 32.6807 22.1082 31.9443 20.931L38.7266 16.6884C37.1156 14.113 33.7222 13.3382 31.1536 14.9426L35.3919 21.7277ZM31.9441 20.9307C31.2116 19.7595 31.5644 18.2163 32.7392 17.4812L36.9827 24.263C39.5564 22.6526 40.3346 19.2594 38.7268 16.6887L31.9441 20.9307ZM32.7389 17.4814L25.8382 21.8001L30.0822 28.5815L36.983 24.2628L32.7389 17.4814ZM25.8409 21.7984C23.8061 23.0696 23.1993 25.7448 24.4654 27.7672L31.2462 23.522C32.3194 25.2361 31.8054 27.505 30.0795 28.5832L25.8409 21.7984ZM24.4602 27.7588C24.8257 28.3458 25.2571 28.7207 25.5429 28.9342L30.3321 22.5261C30.5552 22.6929 30.9294 23.0132 31.2514 23.5303L24.4602 27.7588ZM25.5375 28.9302C25.5345 28.9279 25.5321 28.9262 25.533 28.9268C25.5331 28.9269 25.5342 28.9277 25.5353 28.9286C25.5365 28.9295 25.5385 28.9309 25.5407 28.9326C25.5489 28.9388 25.569 28.9538 25.5945 28.9724C25.6471 29.0106 25.7364 29.0739 25.8515 29.1451L30.0623 22.343C30.1705 22.4099 30.2534 22.4687 30.2997 22.5023C30.322 22.5186 30.3389 22.5313 30.3439 22.535C30.3464 22.5369 30.3485 22.5385 30.3468 22.5372C30.3461 22.5367 30.3422 22.5337 30.3375 22.5302L25.5375 28.9302ZM25.7782 29.0986C26.0957 29.3048 26.5553 29.5454 27.1471 29.6841L28.9716 21.8949C29.4902 22.0164 29.882 22.2247 30.1356 22.3895L25.7782 29.0986ZM27.2749 29.7118C27.3439 29.7256 27.405 29.7359 27.4558 29.7437C27.5065 29.7515 27.5499 29.7571 27.5831 29.7611C27.6161 29.7651 27.6428 29.7679 27.6589 29.7695C27.6672 29.7704 27.6739 29.771 27.6781 29.7714C27.6802 29.7716 27.6819 29.7718 27.683 29.7719C27.6835 29.7719 27.684 29.772 27.6843 29.772C27.6846 29.772 27.6848 29.7721 27.6849 29.7721C27.6856 29.7721 27.6827 29.7719 27.6793 29.7715C27.6756 29.7712 27.6693 29.7706 27.6615 29.7698C27.6462 29.7682 27.6204 29.7655 27.5883 29.7616C27.5559 29.7577 27.5134 29.7522 27.4635 29.7446C27.4136 29.7369 27.3533 29.7267 27.2851 29.7131L28.854 21.8685C28.785 21.8547 28.7238 21.8443 28.673 21.8365C28.6223 21.8288 28.5789 21.8231 28.5457 21.8191C28.5128 21.8152 28.4861 21.8124 28.4699 21.8107C28.4617 21.8099 28.4549 21.8092 28.4508 21.8088C28.4487 21.8086 28.4469 21.8085 28.4459 21.8084C28.4453 21.8083 28.4448 21.8083 28.4445 21.8082C28.4443 21.8082 28.444 21.8082 28.444 21.8082C28.4433 21.8081 28.4461 21.8084 28.4495 21.8087C28.4532 21.8091 28.4595 21.8097 28.4673 21.8105C28.4826 21.812 28.5085 21.8147 28.5406 21.8186C28.5729 21.8225 28.6155 21.828 28.6653 21.8357C28.7153 21.8433 28.7756 21.8535 28.8438 21.8671L27.2749 29.7118ZM27.2965 29.7154C27.3162 29.7193 27.6821 29.799 28.1354 29.799V21.799C28.3592 21.799 28.5393 21.8188 28.6513 21.8344C28.7584 21.8492 28.8397 21.8656 28.8426 21.8662L27.2965 29.7154ZM28.1354 29.799C28.3453 29.799 28.5192 29.7826 28.6393 29.7676C28.756 29.7531 28.8471 29.7364 28.8781 29.7307C28.8928 29.728 28.9088 29.725 28.9031 29.726C28.9026 29.7261 28.8984 29.7269 28.8928 29.728C28.887 29.7291 28.8781 29.7307 28.8672 29.7326C28.8278 29.7397 28.7336 29.7561 28.612 29.7696L27.7286 21.8185C27.601 21.8327 27.501 21.85 27.4557 21.8582C27.4326 21.8623 27.4139 21.8659 27.411 21.8664C27.4025 21.868 27.4155 21.8655 27.4274 21.8634C27.4525 21.8587 27.5378 21.8431 27.6488 21.8292C27.7631 21.8149 27.9312 21.799 28.1354 21.799V29.799ZM28.5556 29.7755C28.5579 29.7752 28.5775 29.7734 28.6009 29.7709C28.6257 29.7682 28.6638 29.764 28.7098 29.7579C28.8015 29.7458 28.9415 29.7243 29.1092 29.6852L27.2913 21.8944C27.4492 21.8576 27.5792 21.8378 27.661 21.827C27.735 21.8172 27.796 21.8116 27.785 21.8127L28.5556 29.7755ZM28.9981 29.7094C29.3389 29.64 29.8545 29.4943 30.4043 29.1559L26.2115 22.3427C26.6929 22.0464 27.136 21.9244 27.4025 21.8702L28.9981 29.7094ZM30.0968 29.327C29.9775 29.3867 29.8655 29.4352 29.7645 29.4747C29.664 29.5139 29.5751 29.544 29.5032 29.5665C29.4672 29.5778 29.435 29.5873 29.4074 29.5952C29.3799 29.603 29.3563 29.6095 29.3378 29.6144C29.3194 29.6193 29.3045 29.6231 29.2955 29.6254C29.2909 29.6266 29.2872 29.6275 29.2849 29.6281C29.2829 29.6286 29.2811 29.629 29.2814 29.6289C29.2814 29.6289 29.2814 29.6289 29.2814 29.6289C29.2815 29.6289 29.2815 29.6289 29.2815 29.6289C29.2815 29.6289 29.2816 29.6289 29.2817 29.6289C29.2818 29.6288 29.2821 29.6288 29.2823 29.6287C29.2829 29.6286 29.2839 29.6283 29.285 29.628C29.2873 29.6275 29.2911 29.6265 29.2958 29.6253C29.3049 29.623 29.3198 29.6192 29.3382 29.6143C29.3568 29.6093 29.3806 29.6028 29.4082 29.595C29.4358 29.5871 29.4681 29.5775 29.5042 29.5662C29.5763 29.5437 29.6653 29.5136 29.766 29.4742C29.8672 29.4347 29.9793 29.3861 30.0988 29.3263L26.5211 22.1709C26.6404 22.1113 26.7523 22.0628 26.8534 22.0233C26.9539 21.984 27.0427 21.9539 27.1147 21.9314C27.1506 21.9202 27.1829 21.9106 27.2104 21.9028C27.2379 21.8949 27.2616 21.8885 27.2801 21.8835C27.2984 21.8787 27.3133 21.8748 27.3223 21.8725C27.327 21.8714 27.3307 21.8704 27.3329 21.8699C27.335 21.8693 27.3367 21.8689 27.3364 21.869C27.3364 21.869 27.3364 21.869 27.3364 21.869C27.3364 21.869 27.3364 21.869 27.3364 21.869C27.3363 21.869 27.3363 21.869 27.3362 21.869C27.336 21.8691 27.3358 21.8691 27.3355 21.8692C27.3349 21.8694 27.334 21.8696 27.3328 21.8699C27.3305 21.8705 27.3267 21.8714 27.3221 21.8726C27.313 21.8749 27.298 21.8788 27.2796 21.8837C27.261 21.8886 27.2372 21.8951 27.2097 21.903C27.1821 21.9109 27.1497 21.9204 27.1137 21.9317C27.0416 21.9543 26.9526 21.9844 26.8519 22.0237C26.7507 22.0633 26.6386 22.1118 26.5191 22.1716L30.0968 29.327ZM30.4317 29.1395L31.2016 28.6577L26.958 21.876L26.1881 22.3578L30.4317 29.1395ZM25.0798 25.2669V25.5484H33.0798V25.2669H25.0798ZM25.0798 25.5484C25.0798 29.7824 27.1115 33.7928 30.526 36.2973L35.2575 29.8465C33.8978 28.8492 33.0798 27.2345 33.0798 25.5484H25.0798ZM30.5262 36.2974L34.102 38.9199L38.8332 32.4689L35.2573 29.8463L30.5262 36.2974ZM36.4676 31.6944H24.1983V39.6944H36.4676V31.6944ZM20.1983 35.6944V35.6954H28.1983V35.6944H20.1983Z" fill="#535353" mask="url(#path-2-inside-1_2012_75)"/>
<mask id="path-4-inside-2_2012_75" fill="white">
<path d="M19.8592 18.2884V16.767C19.8592 15.7047 18.9948 14.8403 17.9321 14.8403C16.8698 14.8403 16.0054 15.7047 16.0054 16.767V18.2884C16.0054 19.3507 16.8698 20.2151 17.9321 20.2151C18.9948 20.2151 19.8592 19.3507 19.8592 18.2884ZM19.2006 18.2884C19.2006 18.9878 18.6315 19.5565 17.9321 19.5565C17.2327 19.5565 16.664 18.9875 16.664 18.2884V16.767C16.664 16.0676 17.233 15.4989 17.9321 15.4989C18.6312 15.4989 19.2006 16.068 19.2006 16.767V18.2884Z"/>
</mask>
<path d="M19.8592 18.2884V16.767C19.8592 15.7047 18.9948 14.8403 17.9321 14.8403C16.8698 14.8403 16.0054 15.7047 16.0054 16.767V18.2884C16.0054 19.3507 16.8698 20.2151 17.9321 20.2151C18.9948 20.2151 19.8592 19.3507 19.8592 18.2884ZM19.2006 18.2884C19.2006 18.9878 18.6315 19.5565 17.9321 19.5565C17.2327 19.5565 16.664 18.9875 16.664 18.2884V16.767C16.664 16.0676 17.233 15.4989 17.9321 15.4989C18.6312 15.4989 19.2006 16.068 19.2006 16.767V18.2884Z" fill="#535353"/>
<path d="M23.8592 18.2884V16.767H15.8592V18.2884H23.8592ZM23.8592 16.767C23.8592 13.4952 21.2035 10.8403 17.9321 10.8403V18.8403C16.7861 18.8403 15.8592 17.9143 15.8592 16.767H23.8592ZM17.9321 10.8403C14.6607 10.8403 12.0054 13.4956 12.0054 16.767H20.0054C20.0054 17.9139 19.0789 18.8403 17.9321 18.8403V10.8403ZM12.0054 16.767V18.2884H20.0054V16.767H12.0054ZM12.0054 18.2884C12.0054 21.5598 14.6607 24.2151 17.9321 24.2151V16.2151C19.0789 16.2151 20.0054 17.1416 20.0054 18.2884H12.0054ZM17.9321 24.2151C21.2035 24.2151 23.8592 21.5603 23.8592 18.2884H15.8592C15.8592 17.1411 16.7861 16.2151 17.9321 16.2151V24.2151ZM15.2006 18.2884C15.2006 16.7773 16.4238 15.5565 17.9321 15.5565V23.5565C20.8393 23.5565 23.2006 21.1983 23.2006 18.2884H15.2006ZM17.9321 15.5565C19.4425 15.5565 20.664 16.779 20.664 18.2884H12.664C12.664 21.196 15.0229 23.5565 17.9321 23.5565V15.5565ZM20.664 18.2884V16.767H12.664V18.2884H20.664ZM20.664 16.767C20.664 18.2774 19.4415 19.4989 17.9321 19.4989V11.4989C15.0246 11.4989 12.664 13.8578 12.664 16.767H20.664ZM17.9321 19.4989C16.4234 19.4989 15.2006 18.2784 15.2006 16.767H23.2006C23.2006 13.8575 20.839 11.4989 17.9321 11.4989V19.4989ZM15.2006 16.767V18.2884H23.2006V16.767H15.2006Z" fill="#535353" mask="url(#path-4-inside-2_2012_75)"/>
<mask id="path-6-inside-3_2012_75" fill="white">
<path d="M22.9904 14.84C21.9281 14.84 21.0637 15.7044 21.0637 16.7667V18.288C21.0637 19.3503 21.9281 20.2147 22.9908 20.2147C24.0531 20.2147 24.9175 19.3503 24.9175 18.288V16.7667C24.9175 15.7044 24.0531 14.84 22.9904 14.84ZM24.2589 18.2884C24.2589 18.9878 23.6899 19.5565 22.9908 19.5565C22.2913 19.5565 21.7226 18.9875 21.7226 18.2884V16.767C21.7226 16.0676 22.2917 15.4989 22.9911 15.4989C23.6905 15.4989 24.2592 16.0679 24.2592 16.767L24.2589 18.2884Z"/>
</mask>
<path d="M22.9904 14.84C21.9281 14.84 21.0637 15.7044 21.0637 16.7667V18.288C21.0637 19.3503 21.9281 20.2147 22.9908 20.2147C24.0531 20.2147 24.9175 19.3503 24.9175 18.288V16.7667C24.9175 15.7044 24.0531 14.84 22.9904 14.84ZM24.2589 18.2884C24.2589 18.9878 23.6899 19.5565 22.9908 19.5565C22.2913 19.5565 21.7226 18.9875 21.7226 18.2884V16.767C21.7226 16.0676 22.2917 15.4989 22.9911 15.4989C23.6905 15.4989 24.2592 16.0679 24.2592 16.767L24.2589 18.2884Z" fill="#535353"/>
<path d="M24.9175 16.7667H20.9175H24.9175ZM24.2589 18.2884L20.2589 18.2875V18.2884H24.2589ZM24.2592 16.767L28.2592 16.7679V16.767H24.2592ZM22.9904 10.84C19.719 10.84 17.0637 13.4952 17.0637 16.7667H25.0637C25.0637 17.9135 24.1373 18.84 22.9904 18.84V10.84ZM17.0637 16.7667V18.288H25.0637V16.7667H17.0637ZM17.0637 18.288C17.0637 21.5599 19.7194 24.2147 22.9908 24.2147V16.2147C24.1368 16.2147 25.0637 17.1408 25.0637 18.288H17.0637ZM22.9908 24.2147C26.2622 24.2147 28.9175 21.5595 28.9175 18.288H20.9175C20.9175 17.1412 21.8439 16.2147 22.9908 16.2147V24.2147ZM28.9175 18.288V16.7667H20.9175V18.288H28.9175ZM28.9175 16.7667C28.9175 13.4948 26.2618 10.84 22.9904 10.84V18.84C21.8444 18.84 20.9175 17.914 20.9175 16.7667L28.9175 16.7667ZM20.2589 18.2884C20.2589 16.778 21.4814 15.5565 22.9908 15.5565V23.5565C25.8983 23.5565 28.2589 21.1976 28.2589 18.2884H20.2589ZM22.9908 15.5565C24.5012 15.5565 25.7226 16.779 25.7226 18.2884H17.7226C17.7226 21.1959 20.0815 23.5565 22.9908 23.5565V15.5565ZM25.7226 18.2884V16.767H17.7226V18.2884H25.7226ZM25.7226 16.767C25.7226 18.2781 24.4995 19.4989 22.9911 19.4989V11.4989C20.0839 11.4989 17.7226 13.8571 17.7226 16.767H25.7226ZM22.9911 19.4989C21.4807 19.4989 20.2592 18.2764 20.2592 16.767H28.2592C28.2592 13.8594 25.9003 11.4989 22.9911 11.4989V19.4989ZM20.2592 16.7661L20.2589 18.2875L28.2589 18.2892L28.2592 16.7679L20.2592 16.7661Z" fill="#535353" mask="url(#path-6-inside-3_2012_75)"/>
<mask id="path-8-inside-4_2012_75" fill="white">
<path d="M20.4614 21.5844C19.3991 21.5844 18.5347 22.4488 18.5347 23.5111V27.9829C18.5347 29.0456 19.3991 29.91 20.4614 29.91C21.5241 29.91 22.3885 29.0456 22.3885 27.9829V23.5111C22.3885 22.4488 21.5241 21.5844 20.4614 21.5844ZM21.7299 27.9832C21.7299 28.6827 21.1609 29.2517 20.4614 29.2517C19.762 29.2517 19.1933 28.6827 19.1933 27.9832V23.5114C19.1933 22.812 19.7623 22.2433 20.4614 22.2433C21.1605 22.2433 21.7299 22.8123 21.7299 23.5114V27.9832Z"/>
</mask>
<path d="M20.4614 21.5844C19.3991 21.5844 18.5347 22.4488 18.5347 23.5111V27.9829C18.5347 29.0456 19.3991 29.91 20.4614 29.91C21.5241 29.91 22.3885 29.0456 22.3885 27.9829V23.5111C22.3885 22.4488 21.5241 21.5844 20.4614 21.5844ZM21.7299 27.9832C21.7299 28.6827 21.1609 29.2517 20.4614 29.2517C19.762 29.2517 19.1933 28.6827 19.1933 27.9832V23.5114C19.1933 22.812 19.7623 22.2433 20.4614 22.2433C21.1605 22.2433 21.7299 22.8123 21.7299 23.5114V27.9832Z" fill="#535353"/>
<path d="M20.4614 17.5844C17.19 17.5844 14.5347 20.2396 14.5347 23.5111H22.5347C22.5347 24.6579 21.6083 25.5844 20.4614 25.5844V17.5844ZM14.5347 23.5111V27.9829H22.5347V23.5111H14.5347ZM14.5347 27.9829C14.5347 31.2542 17.1895 33.91 20.4614 33.91V25.91C21.6087 25.91 22.5347 26.8369 22.5347 27.9829H14.5347ZM20.4614 33.91C23.7332 33.91 26.3885 31.2547 26.3885 27.9829H18.3885C18.3885 26.8364 19.3149 25.91 20.4614 25.91V33.91ZM26.3885 27.9829V23.5111H18.3885V27.9829H26.3885ZM26.3885 23.5111C26.3885 20.2392 23.7328 17.5844 20.4614 17.5844V25.5844C19.3154 25.5844 18.3885 24.6583 18.3885 23.5111H26.3885ZM17.7299 27.9832C17.7299 26.4735 18.9517 25.2517 20.4614 25.2517V33.2517C23.37 33.2517 25.7299 30.8918 25.7299 27.9832H17.7299ZM20.4614 25.2517C21.9725 25.2517 23.1933 26.4749 23.1933 27.9832H15.1933C15.1933 30.8904 17.5515 33.2517 20.4614 33.2517V25.2517ZM23.1933 27.9832V23.5114H15.1933V27.9832H23.1933ZM23.1933 23.5114C23.1933 25.0218 21.9708 26.2433 20.4614 26.2433V18.2433C17.5539 18.2433 15.1933 20.6022 15.1933 23.5114H23.1933ZM20.4614 26.2433C18.9528 26.2433 17.7299 25.0228 17.7299 23.5114H25.7299C25.7299 20.6018 23.3683 18.2433 20.4614 18.2433V26.2433ZM17.7299 23.5114V27.9832H25.7299V23.5114H17.7299Z" fill="#535353" mask="url(#path-8-inside-4_2012_75)"/>
<circle cx="54.5" cy="23.5" r="22.5" fill="white" stroke="#FCC26B" stroke-width="2"/>
<mask id="path-11-inside-5_2012_75" fill="white">
<path d="M53.9832 8.16479C47.5691 8.16479 42.3511 13.3828 42.3511 19.7969V35.2116C42.3511 36.6398 43.5129 37.8015 44.941 37.8015C46.3692 37.8015 47.5309 36.6398 47.5309 35.2116V33.9389C47.5309 32.8739 48.3973 32.0075 49.4623 32.0075C50.5272 32.0075 51.3936 32.8739 51.3936 33.9389V35.2116C51.3933 36.6398 52.5554 37.8015 53.9832 37.8015C55.4113 37.8015 56.5731 36.6398 56.5731 35.2116V33.9389C56.5731 32.8739 57.4395 32.0075 58.5041 32.0075C59.569 32.0075 60.4354 32.8739 60.4354 33.9389V35.2116C60.4354 36.6398 61.5972 37.8015 63.0253 37.8015C64.4532 37.8015 65.6149 36.6398 65.6149 35.2116V19.7969C65.6153 13.3828 60.3972 8.16479 53.9832 8.16479ZM64.9567 35.2116C64.9567 36.2765 64.0903 37.1429 63.0257 37.1429C61.9607 37.1429 61.0944 36.2765 61.0944 35.2116V33.9389C61.0944 32.5107 59.9326 31.3489 58.5044 31.3489C57.0766 31.3489 55.9148 32.5107 55.9148 33.9389V35.2116C55.9145 36.2765 55.0481 37.1429 53.9832 37.1429C52.9182 37.1429 52.0519 36.2765 52.0519 35.2116V33.9389C52.0519 32.5107 50.8901 31.3489 49.4619 31.3489C48.0341 31.3489 46.872 32.5107 46.872 33.9389V35.2116C46.872 36.2765 46.0056 37.1429 44.9407 37.1429C43.8757 37.1429 43.0094 36.2765 43.0094 35.2116V19.7969C43.0097 13.746 47.9324 8.82339 53.9832 8.82339C60.034 8.82339 64.9567 13.746 64.9567 19.7969V35.2116Z"/>
</mask>
<path d="M53.9832 8.16479C47.5691 8.16479 42.3511 13.3828 42.3511 19.7969V35.2116C42.3511 36.6398 43.5129 37.8015 44.941 37.8015C46.3692 37.8015 47.5309 36.6398 47.5309 35.2116V33.9389C47.5309 32.8739 48.3973 32.0075 49.4623 32.0075C50.5272 32.0075 51.3936 32.8739 51.3936 33.9389V35.2116C51.3933 36.6398 52.5554 37.8015 53.9832 37.8015C55.4113 37.8015 56.5731 36.6398 56.5731 35.2116V33.9389C56.5731 32.8739 57.4395 32.0075 58.5041 32.0075C59.569 32.0075 60.4354 32.8739 60.4354 33.9389V35.2116C60.4354 36.6398 61.5972 37.8015 63.0253 37.8015C64.4532 37.8015 65.6149 36.6398 65.6149 35.2116V19.7969C65.6153 13.3828 60.3972 8.16479 53.9832 8.16479ZM64.9567 35.2116C64.9567 36.2765 64.0903 37.1429 63.0257 37.1429C61.9607 37.1429 61.0944 36.2765 61.0944 35.2116V33.9389C61.0944 32.5107 59.9326 31.3489 58.5044 31.3489C57.0766 31.3489 55.9148 32.5107 55.9148 33.9389V35.2116C55.9145 36.2765 55.0481 37.1429 53.9832 37.1429C52.9182 37.1429 52.0519 36.2765 52.0519 35.2116V33.9389C52.0519 32.5107 50.8901 31.3489 49.4619 31.3489C48.0341 31.3489 46.872 32.5107 46.872 33.9389V35.2116C46.872 36.2765 46.0056 37.1429 44.9407 37.1429C43.8757 37.1429 43.0094 36.2765 43.0094 35.2116V19.7969C43.0097 13.746 47.9324 8.82339 53.9832 8.82339C60.034 8.82339 64.9567 13.746 64.9567 19.7969V35.2116Z" fill="#535353"/>
<path d="M51.3936 35.2116L54.2036 35.2122V35.2116H51.3936ZM65.6149 19.7969L62.8049 19.7967V19.7969H65.6149ZM55.9148 35.2116L58.7248 35.2125V35.2116H55.9148ZM43.0094 19.7969L40.1994 19.7967V19.7969H43.0094ZM53.9832 5.35479C46.0172 5.35479 39.5411 11.8309 39.5411 19.7969H45.1611C45.1611 14.9348 49.1211 10.9748 53.9832 10.9748V5.35479ZM39.5411 19.7969V35.2116H45.1611V19.7969H39.5411ZM39.5411 35.2116C39.5411 38.1917 41.9609 40.6115 44.941 40.6115V34.9915C45.0648 34.9915 45.1611 35.0878 45.1611 35.2116H39.5411ZM44.941 40.6115C47.9211 40.6115 50.3409 38.1917 50.3409 35.2116H44.7209C44.7209 35.0878 44.8173 34.9915 44.941 34.9915V40.6115ZM50.3409 35.2116V33.9389H44.7209V35.2116H50.3409ZM50.3409 33.9389C50.3409 34.4258 49.9492 34.8175 49.4623 34.8175V29.1975C46.8454 29.1975 44.7209 31.322 44.7209 33.9389H50.3409ZM49.4623 34.8175C48.9753 34.8175 48.5836 34.4258 48.5836 33.9389H54.2036C54.2036 31.322 52.0791 29.1975 49.4623 29.1975V34.8175ZM48.5836 33.9389V35.2116H54.2036V33.9389H48.5836ZM48.5836 35.2109C48.5829 38.1919 51.0038 40.6115 53.9832 40.6115V34.9915C54.1069 34.9915 54.2036 35.0876 54.2036 35.2122L48.5836 35.2109ZM53.9832 40.6115C56.9633 40.6115 59.3831 38.1917 59.3831 35.2116H53.7631C53.7631 35.0878 53.8594 34.9915 53.9832 34.9915V40.6115ZM59.3831 35.2116V33.9389H53.7631V35.2116H59.3831ZM59.3831 33.9389C59.3831 34.4255 58.9917 34.8175 58.5041 34.8175V29.1975C55.8873 29.1975 53.7631 31.3223 53.7631 33.9389H59.3831ZM58.5041 34.8175C58.0171 34.8175 57.6254 34.4258 57.6254 33.9389H63.2454C63.2454 31.322 61.121 29.1975 58.5041 29.1975V34.8175ZM57.6254 33.9389V35.2116H63.2454V33.9389H57.6254ZM57.6254 35.2116C57.6254 38.1917 60.0453 40.6115 63.0253 40.6115V34.9915C63.1491 34.9915 63.2454 35.0878 63.2454 35.2116H57.6254ZM63.0253 40.6115C66.0053 40.6115 68.4249 38.1914 68.4249 35.2116H62.8049C62.8049 35.0881 62.901 34.9915 63.0253 34.9915V40.6115ZM68.4249 35.2116V19.7969H62.8049V35.2116H68.4249ZM68.4249 19.797C68.4253 11.8309 61.9491 5.35479 53.9832 5.35479V10.9748C58.8453 10.9748 62.8052 14.9347 62.8049 19.7967L68.4249 19.797ZM62.1467 35.2116C62.1467 34.7249 62.5381 34.3329 63.0257 34.3329V39.9529C65.6425 39.9529 67.7667 37.8281 67.7667 35.2116H62.1467ZM63.0257 34.3329C63.5127 34.3329 63.9044 34.7246 63.9044 35.2116H58.2844C58.2844 37.8285 60.4088 39.9529 63.0257 39.9529V34.3329ZM63.9044 35.2116V33.9389H58.2844V35.2116H63.9044ZM63.9044 33.9389C63.9044 30.9588 61.4845 28.5389 58.5044 28.5389V34.1589C58.3807 34.1589 58.2844 34.0626 58.2844 33.9389H63.9044ZM58.5044 28.5389C55.5244 28.5389 53.1048 30.959 53.1048 33.9389H58.7248C58.7248 34.0624 58.6288 34.1589 58.5044 34.1589V28.5389ZM53.1048 33.9389V35.2116H58.7248V33.9389H53.1048ZM53.1048 35.2107C53.105 34.7246 53.496 34.3329 53.9832 34.3329V39.9529C56.6002 39.9529 58.724 37.8285 58.7248 35.2125L53.1048 35.2107ZM53.9832 34.3329C54.4702 34.3329 54.8619 34.7246 54.8619 35.2116H49.2419C49.2419 37.8285 51.3663 39.9529 53.9832 39.9529V34.3329ZM54.8619 35.2116V33.9389H49.2419V35.2116H54.8619ZM54.8619 33.9389C54.8619 30.9588 52.442 28.5389 49.4619 28.5389V34.1589C49.3382 34.1589 49.2419 34.0626 49.2419 33.9389H54.8619ZM49.4619 28.5389C46.4824 28.5389 44.062 30.9585 44.062 33.9389H49.682C49.682 34.0629 49.5858 34.1589 49.4619 34.1589V28.5389ZM44.062 33.9389V35.2116H49.682V33.9389H44.062ZM44.062 35.2116C44.062 34.7246 44.4537 34.3329 44.9407 34.3329V39.9529C47.5576 39.9529 49.682 37.8285 49.682 35.2116H44.062ZM44.9407 34.3329C45.4277 34.3329 45.8194 34.7246 45.8194 35.2116H40.1994C40.1994 37.8285 42.3238 39.9529 44.9407 39.9529V34.3329ZM45.8194 35.2116V19.7969H40.1994V35.2116H45.8194ZM45.8194 19.797C45.8196 15.298 49.4843 11.6334 53.9832 11.6334V6.01339C46.3804 6.01339 40.1998 12.1941 40.1994 19.7967L45.8194 19.797ZM53.9832 11.6334C58.4821 11.6334 62.1467 15.298 62.1467 19.7969H67.7667C67.7667 12.1941 61.5859 6.01339 53.9832 6.01339V11.6334ZM62.1467 19.7969V35.2116H67.7667V19.7969H62.1467Z" fill="#535353" mask="url(#path-11-inside-5_2012_75)"/>
<mask id="path-13-inside-6_2012_75" fill="white">
<path d="M49.373 15.8779C47.1154 15.8779 45.2786 17.7147 45.2786 19.9724C45.2786 22.2301 47.1154 24.0669 49.373 24.0669C51.6307 24.0669 53.4675 22.2301 53.4675 19.9724C53.4675 17.7147 51.6307 15.8779 49.373 15.8779ZM50.9263 22.259C50.2957 22.259 49.783 21.746 49.783 21.1157C49.783 20.4855 50.2961 19.9724 50.9263 19.9724C51.5566 19.9724 52.0697 20.4855 52.0697 21.1157C52.0697 21.746 51.5566 22.259 50.9263 22.259ZM52.7006 20.8124C52.5557 19.9632 51.8164 19.3138 50.9263 19.3138C49.9325 19.3138 49.1244 20.1222 49.1244 21.1157C49.1244 22.1092 49.9328 22.9176 50.9263 22.9176C51.006 22.9176 51.0841 22.9107 51.1615 22.9005C50.6398 23.2203 50.0287 23.4083 49.3734 23.4083C47.4789 23.4083 45.9375 21.8669 45.9375 19.9724C45.9375 18.078 47.4789 16.5365 49.3734 16.5365C51.2678 16.5365 52.8093 18.078 52.8093 19.9724C52.8089 20.2625 52.7688 20.5431 52.7006 20.8124Z"/>
</mask>
<path d="M49.373 15.8779C47.1154 15.8779 45.2786 17.7147 45.2786 19.9724C45.2786 22.2301 47.1154 24.0669 49.373 24.0669C51.6307 24.0669 53.4675 22.2301 53.4675 19.9724C53.4675 17.7147 51.6307 15.8779 49.373 15.8779ZM50.9263 22.259C50.2957 22.259 49.783 21.746 49.783 21.1157C49.783 20.4855 50.2961 19.9724 50.9263 19.9724C51.5566 19.9724 52.0697 20.4855 52.0697 21.1157C52.0697 21.746 51.5566 22.259 50.9263 22.259ZM52.7006 20.8124C52.5557 19.9632 51.8164 19.3138 50.9263 19.3138C49.9325 19.3138 49.1244 20.1222 49.1244 21.1157C49.1244 22.1092 49.9328 22.9176 50.9263 22.9176C51.006 22.9176 51.0841 22.9107 51.1615 22.9005C50.6398 23.2203 50.0287 23.4083 49.3734 23.4083C47.4789 23.4083 45.9375 21.8669 45.9375 19.9724C45.9375 18.078 47.4789 16.5365 49.3734 16.5365C51.2678 16.5365 52.8093 18.078 52.8093 19.9724C52.8089 20.2625 52.7688 20.5431 52.7006 20.8124Z" fill="#535353"/>
<path d="M52.7006 20.8124L49.9306 21.285L55.4247 21.5018L52.7006 20.8124ZM51.1615 22.9005L52.63 25.2962L50.794 20.1146L51.1615 22.9005ZM52.8093 19.9724L55.6193 19.9756V19.9724H52.8093ZM49.373 13.0679C45.5635 13.0679 42.4686 16.1628 42.4686 19.9724H48.0886C48.0886 19.2667 48.6673 18.6879 49.373 18.6879V13.0679ZM42.4686 19.9724C42.4686 23.782 45.5635 26.8769 49.373 26.8769V21.2569C48.6673 21.2569 48.0886 20.6781 48.0886 19.9724H42.4686ZM49.373 26.8769C53.1826 26.8769 56.2775 23.782 56.2775 19.9724H50.6575C50.6575 20.6781 50.0788 21.2569 49.373 21.2569V26.8769ZM56.2775 19.9724C56.2775 16.1628 53.1826 13.0679 49.373 13.0679V18.6879C50.0788 18.6879 50.6575 19.2667 50.6575 19.9724H56.2775ZM50.9263 19.449C51.8482 19.449 52.593 20.1946 52.593 21.1157H46.973C46.973 23.2974 48.7433 25.069 50.9263 25.069V19.449ZM52.593 21.1157C52.593 22.0374 51.848 22.7824 50.9263 22.7824V17.1624C48.7441 17.1624 46.973 18.9335 46.973 21.1157H52.593ZM50.9263 22.7824C50.0047 22.7824 49.2597 22.0374 49.2597 21.1157H54.8797C54.8797 18.9335 53.1085 17.1624 50.9263 17.1624V22.7824ZM49.2597 21.1157C49.2597 20.1941 50.0047 19.449 50.9263 19.449V25.069C53.1085 25.069 54.8797 23.2979 54.8797 21.1157H49.2597ZM55.4706 20.3399C55.1005 18.1708 53.2165 16.5038 50.9263 16.5038V22.1238C50.4164 22.1238 50.0109 21.7556 49.9306 21.285L55.4706 20.3399ZM50.9263 16.5038C48.3803 16.5038 46.3144 18.5707 46.3144 21.1157H51.9344C51.9344 21.6738 51.4848 22.1238 50.9263 22.1238V16.5038ZM46.3144 21.1157C46.3144 23.6611 48.3809 25.7276 50.9263 25.7276V20.1076C51.4848 20.1076 51.9344 20.5573 51.9344 21.1157H46.3144ZM50.9263 25.7276C51.1669 25.7276 51.3742 25.7068 51.5289 25.6864L50.794 20.1146C50.7947 20.1146 50.8077 20.1128 50.8297 20.1111C50.852 20.1094 50.885 20.1076 50.9263 20.1076V25.7276ZM49.6929 20.5048C49.5887 20.5687 49.4822 20.5983 49.3734 20.5983V26.2183C50.5751 26.2183 51.691 25.8718 52.63 25.2962L49.6929 20.5048ZM49.3734 20.5983C49.0308 20.5983 48.7475 20.3149 48.7475 19.9724H43.1275C43.1275 23.4188 45.927 26.2183 49.3734 26.2183V20.5983ZM48.7475 19.9724C48.7475 19.6299 49.0308 19.3465 49.3734 19.3465V13.7265C45.927 13.7265 43.1275 16.526 43.1275 19.9724H48.7475ZM49.3734 19.3465C49.7159 19.3465 49.9993 19.6299 49.9993 19.9724H55.6193C55.6193 16.526 52.8197 13.7265 49.3734 13.7265V19.3465ZM49.9993 19.9692C49.9992 20.0003 49.9951 20.0495 49.9765 20.1231L55.4247 21.5018C55.5424 21.0366 55.6186 20.5248 55.6193 19.9756L49.9993 19.9692Z" fill="#535353" mask="url(#path-13-inside-6_2012_75)"/>
<mask id="path-15-inside-7_2012_75" fill="white">
<path d="M58.5933 15.8779C56.336 15.8779 54.4989 17.7147 54.4989 19.9724C54.4989 22.2301 56.336 24.0669 58.5933 24.0669C60.8507 24.0669 62.6878 22.2301 62.6878 19.9724C62.6878 17.7147 60.8507 15.8779 58.5933 15.8779ZM60.1466 22.259C59.5164 22.259 59.0033 21.746 59.0033 21.1157C59.0033 20.4855 59.5164 19.9724 60.1466 19.9724C60.7769 19.9724 61.29 20.4855 61.29 21.1157C61.29 21.746 60.7769 22.259 60.1466 22.259ZM61.9209 20.8128C61.776 19.9632 61.0367 19.3138 60.1466 19.3138C59.1528 19.3138 58.3447 20.1222 58.3447 21.1157C58.3447 22.1092 59.1528 22.9176 60.1466 22.9176C60.2263 22.9176 60.3044 22.9107 60.3818 22.9005C59.8602 23.2203 59.249 23.4083 58.5937 23.4083C56.6992 23.4083 55.1578 21.8669 55.1578 19.9724C55.1578 18.078 56.6992 16.5365 58.5937 16.5365C60.4881 16.5365 62.0296 18.078 62.0296 19.9724C62.0292 20.2628 61.9891 20.5431 61.9209 20.8128Z"/>
</mask>
<path d="M58.5933 15.8779C56.336 15.8779 54.4989 17.7147 54.4989 19.9724C54.4989 22.2301 56.336 24.0669 58.5933 24.0669C60.8507 24.0669 62.6878 22.2301 62.6878 19.9724C62.6878 17.7147 60.8507 15.8779 58.5933 15.8779ZM60.1466 22.259C59.5164 22.259 59.0033 21.746 59.0033 21.1157C59.0033 20.4855 59.5164 19.9724 60.1466 19.9724C60.7769 19.9724 61.29 20.4855 61.29 21.1157C61.29 21.746 60.7769 22.259 60.1466 22.259ZM61.9209 20.8128C61.776 19.9632 61.0367 19.3138 60.1466 19.3138C59.1528 19.3138 58.3447 20.1222 58.3447 21.1157C58.3447 22.1092 59.1528 22.9176 60.1466 22.9176C60.2263 22.9176 60.3044 22.9107 60.3818 22.9005C59.8602 23.2203 59.249 23.4083 58.5937 23.4083C56.6992 23.4083 55.1578 21.8669 55.1578 19.9724C55.1578 18.078 56.6992 16.5365 58.5937 16.5365C60.4881 16.5365 62.0296 18.078 62.0296 19.9724C62.0292 20.2628 61.9891 20.5431 61.9209 20.8128Z" fill="#535353"/>
<path d="M61.9209 20.8128L59.1509 21.2852L64.6452 21.5013L61.9209 20.8128ZM60.3818 22.9005L61.8503 25.2962L60.0143 20.1146L60.3818 22.9005ZM62.0296 19.9724L64.8396 19.9756V19.9724H62.0296ZM58.5933 13.0679C54.7842 13.0679 51.6889 16.1627 51.6889 19.9724H57.3089C57.3089 19.2668 57.8878 18.6879 58.5933 18.6879V13.0679ZM51.6889 19.9724C51.6889 23.7821 54.7842 26.8769 58.5933 26.8769V21.2569C57.8878 21.2569 57.3089 20.678 57.3089 19.9724H51.6889ZM58.5933 26.8769C62.4025 26.8769 65.4978 23.7821 65.4978 19.9724H59.8778C59.8778 20.678 59.2989 21.2569 58.5933 21.2569V26.8769ZM65.4978 19.9724C65.4978 16.1627 62.4025 13.0679 58.5933 13.0679V18.6879C59.2989 18.6879 59.8778 19.2668 59.8778 19.9724H65.4978ZM60.1466 19.449C61.0683 19.449 61.8133 20.1941 61.8133 21.1157H56.1933C56.1933 23.2979 57.9644 25.069 60.1466 25.069V19.449ZM61.8133 21.1157C61.8133 22.0374 61.0683 22.7824 60.1466 22.7824V17.1624C57.9644 17.1624 56.1933 18.9335 56.1933 21.1157H61.8133ZM60.1466 22.7824C59.225 22.7824 58.48 22.0374 58.48 21.1157H64.1C64.1 18.9335 62.3288 17.1624 60.1466 17.1624V22.7824ZM58.48 21.1157C58.48 20.1941 59.225 19.449 60.1466 19.449V25.069C62.3288 25.069 64.1 23.2979 64.1 21.1157H58.48ZM64.6909 20.3404C64.3209 18.1711 62.437 16.5038 60.1466 16.5038V22.1238C59.6364 22.1238 59.2311 21.7553 59.1509 21.2852L64.6909 20.3404ZM60.1466 16.5038C57.6006 16.5038 55.5347 18.5707 55.5347 21.1157H61.1547C61.1547 21.6738 60.7051 22.1238 60.1466 22.1238V16.5038ZM55.5347 21.1157C55.5347 23.6608 57.6006 25.7276 60.1466 25.7276V20.1076C60.7051 20.1076 61.1547 20.5576 61.1547 21.1157H55.5347ZM60.1466 25.7276C60.3872 25.7276 60.5945 25.7068 60.7493 25.6864L60.0143 20.1146C60.015 20.1146 60.028 20.1128 60.05 20.1111C60.0723 20.1094 60.1053 20.1076 60.1466 20.1076V25.7276ZM58.9132 20.5048C58.809 20.5687 58.7026 20.5983 58.5937 20.5983V26.2183C59.7954 26.2183 60.9113 25.8718 61.8503 25.2962L58.9132 20.5048ZM58.5937 20.5983C58.2512 20.5983 57.9678 20.3149 57.9678 19.9724H52.3478C52.3478 23.4188 55.1473 26.2183 58.5937 26.2183V20.5983ZM57.9678 19.9724C57.9678 19.6299 58.2512 19.3465 58.5937 19.3465V13.7265C55.1473 13.7265 52.3478 16.526 52.3478 19.9724H57.9678ZM58.5937 19.3465C58.9362 19.3465 59.2196 19.6299 59.2196 19.9724H64.8396C64.8396 16.526 62.04 13.7265 58.5937 13.7265V19.3465ZM59.2196 19.9692C59.2195 20.0004 59.2154 20.0495 59.1966 20.1242L64.6452 21.5013C64.7627 21.0366 64.8389 20.5253 64.8396 19.9756L59.2196 19.9692Z" fill="#535353" mask="url(#path-15-inside-7_2012_75)"/>
<circle cx="86.5" cy="23.5" r="22.5" fill="white" stroke="#FCC26B" stroke-width="2"/>
<g clip-path="url(#clip0_2012_75)">
<mask id="path-18-inside-8_2012_75" fill="white">
<path d="M85.9832 37.6026C83.907 37.6026 83.0712 36.429 82.3995 35.4856C81.8337 34.691 81.3869 34.0637 80.3335 34.0004C79.2161 33.9333 78.6152 34.4084 77.9187 34.9577C77.2328 35.4994 76.455 36.1162 75.1856 36.0365C72.4458 35.7457 71.1016 33.8806 71.1671 30.4911L71.1727 30.2027L71.427 30.0657C76.1425 27.5278 78.3386 23.0954 78.3386 16.1176C78.3386 11.8427 81.2143 8.36467 84.7497 8.36401H87.2167C90.7521 8.36434 93.6278 11.8424 93.6278 16.1173C93.6278 23.0954 95.8242 27.5274 100.539 30.0653L100.793 30.2023L100.799 30.4908C100.865 33.8802 99.5203 35.7454 96.8036 36.0345C95.5094 36.1132 94.7339 35.4991 94.0477 34.9574C93.3512 34.4078 92.7483 33.9339 91.6329 34.0001C90.5795 34.063 90.1327 34.6906 89.5673 35.4849C88.8955 36.4287 88.0594 37.6026 85.9832 37.6026ZM80.1263 33.0063C80.2126 33.0063 80.3012 33.0089 80.3921 33.0142C81.917 33.1051 82.601 34.065 83.2039 34.9123C83.8546 35.8257 84.4164 36.6147 85.9832 36.6147C87.5503 36.6147 88.1121 35.8257 88.7621 34.9123C89.3654 34.0656 90.0487 33.1057 91.5737 33.0145C93.0703 32.9259 93.913 33.5931 94.6595 34.1822C95.3118 34.6972 95.8285 35.1042 96.7216 35.0509C98.8054 34.8283 99.7992 33.4726 99.8137 30.7941C94.9213 28.0451 92.6399 23.3724 92.6399 16.1173C92.6399 12.3867 90.2064 9.35158 87.2151 9.35158H84.751C81.76 9.35158 79.3265 12.3867 79.3265 16.1173C79.3265 23.3717 77.0451 28.0451 72.1527 30.7937C72.1669 33.4722 73.1614 34.8283 75.2672 35.0525C76.1392 35.1036 76.6539 34.6972 77.3066 34.1819C78.008 33.629 78.7973 33.0063 80.1263 33.0063Z"/>
</mask>
<path d="M82.3995 35.4856L80.1104 37.1153L80.1104 37.1154L82.3995 35.4856ZM80.3335 34.0004L80.1648 36.8054L80.1651 36.8054L80.3335 34.0004ZM77.9187 34.9577L76.1786 32.7513L76.1772 32.7525L77.9187 34.9577ZM75.1856 36.0365L74.889 38.8308L74.9491 38.8372L75.0095 38.841L75.1856 36.0365ZM71.1671 30.4911L68.3577 30.4366L68.3577 30.4368L71.1671 30.4911ZM71.1727 30.2027L69.8398 27.7289L68.3951 28.5074L68.3633 30.1481L71.1727 30.2027ZM71.427 30.0657L70.0952 27.5913L70.094 27.592L71.427 30.0657ZM84.7497 8.36401L84.7497 5.55401L84.7491 5.55401L84.7497 8.36401ZM87.2167 8.36401L87.217 5.55401H87.2167V8.36401ZM100.539 30.0653L101.874 27.5923L101.871 27.591L100.539 30.0653ZM100.793 30.2023L103.603 30.1446L103.569 28.5071L102.128 27.7293L100.793 30.2023ZM100.799 30.4908L103.609 30.4365L103.609 30.4331L100.799 30.4908ZM96.8036 36.0345L96.9741 38.8393L97.0377 38.8355L97.1009 38.8287L96.8036 36.0345ZM94.0477 34.9574L95.7887 32.7517L95.7884 32.7515L94.0477 34.9574ZM91.6329 34.0001L91.4665 31.195L91.4655 31.1951L91.6329 34.0001ZM89.5673 35.4849L87.278 33.8553L87.278 33.8554L89.5673 35.4849ZM80.3921 33.0142L80.5592 30.2092L80.5547 30.2089L80.3921 33.0142ZM83.2039 34.9123L80.9145 36.5415L80.9152 36.5426L83.2039 34.9123ZM88.7621 34.9123L86.4737 33.2816L86.4726 33.283L88.7621 34.9123ZM91.5737 33.0145L91.4076 30.2094L91.4059 30.2095L91.5737 33.0145ZM94.6595 34.1822L96.4007 31.9767L96.4003 31.9763L94.6595 34.1822ZM96.7216 35.0509L96.8891 37.8559L96.9547 37.852L97.0201 37.845L96.7216 35.0509ZM99.8137 30.7941L102.624 30.8093L102.633 29.1548L101.19 28.3443L99.8137 30.7941ZM72.1527 30.7937L70.7764 28.3439L69.334 29.1542L69.3428 30.8086L72.1527 30.7937ZM75.2672 35.0525L74.9697 37.8467L75.0362 37.8538L75.103 37.8577L75.2672 35.0525ZM77.3066 34.1819L75.567 31.9751L75.5652 31.9765L77.3066 34.1819ZM85.9832 34.7926C85.7334 34.7926 85.5897 34.7581 85.5167 34.7342C85.4463 34.7111 85.3947 34.6827 85.3428 34.644C85.1952 34.5341 85.0514 34.3654 84.6885 33.8557L80.1104 37.1154C80.4193 37.5492 81.0292 38.439 81.9865 39.1517C83.0346 39.9321 84.3539 40.4126 85.9832 40.4126V34.7926ZM84.6885 33.8558C84.457 33.5305 83.9973 32.8556 83.3575 32.3178C82.5918 31.6741 81.6448 31.2641 80.5018 31.1955L80.1651 36.8054C80.1563 36.8049 80.0805 36.798 79.9711 36.7539C79.8606 36.7093 79.7811 36.6533 79.7411 36.6197C79.711 36.5944 79.7256 36.6001 79.7961 36.6879C79.8302 36.7303 79.8716 36.7845 79.9253 36.8577C79.9801 36.9325 80.0375 37.013 80.1104 37.1153L84.6885 33.8558ZM80.5021 31.1955C78.2421 31.0596 76.898 32.1839 76.1786 32.7513L79.6588 37.1641C79.8451 37.0172 79.9516 36.9341 80.0488 36.8657C80.1362 36.8043 80.1715 36.7873 80.1739 36.7861C80.1741 36.786 80.1676 36.7891 80.1557 36.7931C80.1435 36.7972 80.131 36.8004 80.1198 36.8026C80.0937 36.8077 80.1026 36.8016 80.1648 36.8054L80.5021 31.1955ZM76.1772 32.7525C75.9956 32.8958 75.8802 32.9862 75.7669 33.0657C75.6616 33.1395 75.5936 33.1781 75.549 33.1997C75.5084 33.2193 75.4865 33.2251 75.4739 33.2278C75.4626 33.2301 75.4297 33.2363 75.3616 33.232L75.0095 38.841C77.4438 38.9938 78.9808 37.6996 79.6603 37.163L76.1772 32.7525ZM75.4821 33.2422C74.733 33.1627 74.5111 32.9309 74.4008 32.7784C74.2238 32.5339 73.9502 31.9111 73.9766 30.5454L68.3577 30.4368C68.3185 32.4606 68.6842 34.4651 69.8479 36.0732C71.0782 37.7734 72.8984 38.6195 74.889 38.8308L75.4821 33.2422ZM73.9766 30.5456L73.9822 30.2572L68.3633 30.1481L68.3577 30.4366L73.9766 30.5456ZM72.5057 32.6764L72.7599 32.5394L70.094 27.592L69.8398 27.7289L72.5057 32.6764ZM72.7587 32.5401C75.5952 31.0134 77.7551 28.8575 79.1689 26.0042C80.5589 23.1991 81.1486 19.8822 81.1486 16.1176H75.5286C75.5286 19.3309 75.0202 21.7191 74.1332 23.509C73.2702 25.2508 71.9742 26.58 70.0952 27.5913L72.7587 32.5401ZM81.1486 16.1176C81.1486 12.8714 83.2424 11.1743 84.7502 11.174L84.7491 5.55401C79.1862 5.55505 75.5286 10.814 75.5286 16.1176H81.1486ZM84.7497 11.174H87.2167V5.55401H84.7497V11.174ZM87.2165 11.174C88.724 11.1742 90.8178 12.8709 90.8178 16.1173H96.4378C96.4378 10.8138 92.7802 5.55453 87.217 5.55401L87.2165 11.174ZM90.8178 16.1173C90.8178 19.8821 91.4076 23.199 92.7976 26.0041C94.2115 28.8573 96.3714 31.0131 99.2077 32.5397L101.871 27.591C99.9923 26.5797 98.6964 25.2505 97.8332 23.5087C96.9463 21.7189 96.4378 19.3307 96.4378 16.1173H90.8178ZM99.2051 32.5383L99.459 32.6753L102.128 27.7293L101.874 27.5923L99.2051 32.5383ZM97.9839 30.26L97.9898 30.5485L103.609 30.4331L103.603 30.1446L97.9839 30.26ZM97.9898 30.5451C98.0162 31.9103 97.7427 32.5359 97.5652 32.7822C97.4546 32.9356 97.2371 33.1625 96.5062 33.2403L97.1009 38.8287C99.0867 38.6174 100.9 37.7672 102.124 36.0683C103.282 34.4624 103.648 32.4607 103.609 30.4365L97.9898 30.5451ZM96.633 33.2297C96.5523 33.2346 96.5104 33.2275 96.4934 33.224C96.4756 33.2203 96.4515 33.2134 96.4114 33.1942C96.2946 33.1383 96.163 33.0471 95.7887 32.7517L92.3066 37.163C93.0024 37.7123 94.5277 38.9881 96.9741 38.8393L96.633 33.2297ZM95.7884 32.7515C95.0645 32.1802 93.7211 31.0612 91.4665 31.195L91.7994 36.8052C91.8614 36.8015 91.8707 36.8075 91.8453 36.8026C91.8345 36.8005 91.8223 36.7973 91.8106 36.7933C91.799 36.7895 91.7928 36.7865 91.7933 36.7868C91.7962 36.7881 91.8317 36.8053 91.9188 36.8665C92.0154 36.9343 92.122 37.0173 92.307 37.1633L95.7884 32.7515ZM91.4655 31.1951C90.3219 31.2634 89.3746 31.6736 88.6088 32.3174C87.969 32.8553 87.5094 33.5304 87.278 33.8553L91.8565 37.1145C91.9293 37.0122 91.9867 36.9317 92.0415 36.8569C92.0952 36.7837 92.1365 36.7295 92.1706 36.6871C92.2411 36.5994 92.2556 36.5937 92.2254 36.6191C92.1854 36.6527 92.1058 36.7089 91.9951 36.7535C91.8854 36.7976 91.8094 36.8046 91.8004 36.8051L91.4655 31.1951ZM87.278 33.8554C86.9152 34.365 86.7712 34.534 86.6236 34.6439C86.5716 34.6826 86.52 34.7111 86.4496 34.7342C86.3766 34.7581 86.2329 34.7926 85.9832 34.7926V40.4126C87.6126 40.4126 88.9321 39.932 89.9802 39.1514C90.9376 38.4385 91.5475 37.5486 91.8566 37.1144L87.278 33.8554ZM80.1263 35.8163C80.1555 35.8163 80.1898 35.8172 80.2294 35.8195L80.5547 30.2089C80.4126 30.2007 80.2697 30.1963 80.1263 30.1963V35.8163ZM80.2249 35.8192C80.2745 35.8222 80.3051 35.8277 80.3204 35.831C80.3283 35.8328 80.3334 35.8343 80.3361 35.8351C80.3388 35.8359 80.34 35.8364 80.34 35.8364C80.34 35.8364 80.3397 35.8363 80.3393 35.8361C80.3389 35.8359 80.3391 35.836 80.3402 35.8366C80.3421 35.8378 80.3502 35.8428 80.3652 35.8551C80.3977 35.8817 80.4571 35.9374 80.5522 36.0533C80.6541 36.1775 80.7557 36.3184 80.9145 36.5415L85.4934 33.283C84.908 32.4603 83.534 30.3865 80.5592 30.2092L80.2249 35.8192ZM80.9152 36.5426C81.1897 36.9279 81.7378 37.7379 82.5702 38.3587C83.5294 39.0739 84.6686 39.4247 85.9832 39.4247V33.8047C85.8288 33.8047 85.7872 33.7856 85.8155 33.7944C85.8518 33.8057 85.8975 33.8293 85.9298 33.8534C85.9516 33.8697 85.929 33.8583 85.8513 33.7649C85.7627 33.6587 85.6675 33.5275 85.4926 33.2819L80.9152 36.5426ZM85.9832 39.4247C87.2977 39.4247 88.4372 39.0741 89.3965 38.3586C90.2293 37.7375 90.7771 36.9272 91.0516 36.5415L86.4726 33.283C86.2981 33.5284 86.203 33.6595 86.1147 33.7655C86.0371 33.8587 86.0147 33.8699 86.0367 33.8535C86.0691 33.8293 86.1149 33.8057 86.1512 33.7944C86.1795 33.7856 86.1377 33.8047 85.9832 33.8047V39.4247ZM91.0506 36.5429C91.2099 36.3194 91.3115 36.1785 91.4137 36.054C91.5089 35.938 91.5684 35.8821 91.601 35.8555C91.6161 35.8432 91.6242 35.8381 91.6261 35.837C91.6271 35.8363 91.6274 35.8362 91.627 35.8364C91.6266 35.8366 91.6263 35.8368 91.6263 35.8368C91.6263 35.8368 91.6275 35.8363 91.6302 35.8354C91.6329 35.8346 91.638 35.8331 91.6459 35.8314C91.6613 35.828 91.6919 35.8225 91.7414 35.8195L91.4059 30.2095C88.4315 30.3874 87.058 32.4615 86.4737 33.2816L91.0506 36.5429ZM91.7397 35.8196C92.0008 35.8042 92.1214 35.8494 92.2088 35.8902C92.361 35.9613 92.5166 36.0707 92.9188 36.3881L96.4003 31.9763C95.6012 31.3457 94.0283 30.0543 91.4076 30.2094L91.7397 35.8196ZM92.9183 36.3877C93.5266 36.868 94.8157 37.9797 96.8891 37.8559L96.554 32.2459C96.5647 32.2453 96.6164 32.2442 96.6921 32.2601C96.7677 32.276 96.8228 32.2994 96.8463 32.311C96.8623 32.319 96.8407 32.3103 96.7612 32.2537C96.7222 32.226 96.6749 32.1907 96.6135 32.1434C96.5508 32.0951 96.4846 32.0429 96.4007 31.9767L92.9183 36.3877ZM97.0201 37.845C98.6547 37.6704 100.233 36.9847 101.315 35.4973C102.318 34.1195 102.615 32.4296 102.624 30.8093L97.0037 30.7789C96.998 31.837 96.7903 32.1642 96.7718 32.1896C96.7693 32.1932 96.7731 32.1875 96.7828 32.1792C96.7924 32.171 96.7968 32.1695 96.7889 32.1736C96.7724 32.1821 96.671 32.2303 96.4231 32.2568L97.0201 37.845ZM101.19 28.3443C99.2098 27.2316 97.8329 25.7865 96.9169 23.9118C95.9791 21.9926 95.4499 19.4675 95.4499 16.1173H89.8299C89.8299 20.0222 90.4415 23.461 91.8675 26.3792C93.3152 29.3418 95.5252 31.6076 98.4372 33.2438L101.19 28.3443ZM95.4499 16.1173C95.4499 11.4459 92.3059 6.54158 87.2151 6.54158V12.1616C88.1069 12.1616 89.8299 13.3275 89.8299 16.1173H95.4499ZM87.2151 6.54158H84.751V12.1616H87.2151V6.54158ZM84.751 6.54158C79.6604 6.54158 76.5165 11.446 76.5165 16.1173H82.1365C82.1365 13.3274 83.8596 12.1616 84.751 12.1616V6.54158ZM76.5165 16.1173C76.5165 19.4671 75.9873 21.9923 75.0495 23.9115C74.1334 25.7863 72.7566 27.2314 70.7764 28.3439L73.5291 33.2436C76.4413 31.6075 78.6512 29.3416 80.0989 26.3789C81.5249 23.4606 82.1365 20.0219 82.1365 16.1173H76.5165ZM69.3428 30.8086C69.3513 32.4289 69.6478 34.1226 70.6579 35.503C71.7472 36.9915 73.3322 37.6724 74.9697 37.8467L75.5648 32.2583C75.3082 32.231 75.2007 32.1813 75.1801 32.1707C75.1703 32.1656 75.1736 32.1662 75.1826 32.1739C75.1918 32.1818 75.1956 32.1872 75.1932 32.184C75.1761 32.1606 74.9683 31.8371 74.9627 30.7789L69.3428 30.8086ZM75.103 37.8577C77.1624 37.9783 78.4561 36.8546 79.0479 36.3873L75.5652 31.9765C75.4812 32.0428 75.4146 32.0954 75.3514 32.1441C75.2895 32.1918 75.2415 32.2276 75.2018 32.256C75.1206 32.314 75.0976 32.3237 75.1125 32.3163C75.1347 32.3052 75.1911 32.2805 75.2707 32.2634C75.3511 32.2461 75.4102 32.2461 75.4314 32.2473L75.103 37.8577ZM79.0461 36.3887C79.4225 36.092 79.5802 35.9786 79.7343 35.9018C79.8333 35.8525 79.9365 35.8163 80.1263 35.8163V30.1963C77.7523 30.1963 76.291 31.4044 75.567 31.9751L79.0461 36.3887Z" fill="#535353" mask="url(#path-18-inside-8_2012_75)"/>
<mask id="path-20-inside-9_2012_75" fill="white">
<path d="M83.8559 14.7988L84.5349 13.966C84.7072 13.7546 84.6755 13.4434 84.4645 13.2708C84.2527 13.0986 83.9422 13.1302 83.7693 13.3413L83.2184 14.017L82.6675 13.3413C82.4949 13.1299 82.1844 13.098 81.9723 13.2708C81.7609 13.4434 81.7293 13.7546 81.9019 13.966L82.5809 14.7988L81.9019 15.6316C81.7297 15.843 81.7613 16.1542 81.9723 16.3267C82.0642 16.4015 82.1745 16.4377 82.2842 16.4377C82.4274 16.4377 82.5697 16.3758 82.6675 16.2559L83.2184 15.5802L83.7693 16.2559C83.8671 16.3755 84.009 16.4377 84.1526 16.4377C84.2623 16.4377 84.3726 16.4015 84.4645 16.3267C84.6759 16.1542 84.7075 15.843 84.5349 15.6316L83.8559 14.7988Z"/>
</mask>
<path d="M83.8559 14.7988L84.5349 13.966C84.7072 13.7546 84.6755 13.4434 84.4645 13.2708C84.2527 13.0986 83.9422 13.1302 83.7693 13.3413L83.2184 14.017L82.6675 13.3413C82.4949 13.1299 82.1844 13.098 81.9723 13.2708C81.7609 13.4434 81.7293 13.7546 81.9019 13.966L82.5809 14.7988L81.9019 15.6316C81.7297 15.843 81.7613 16.1542 81.9723 16.3267C82.0642 16.4015 82.1745 16.4377 82.2842 16.4377C82.4274 16.4377 82.5697 16.3758 82.6675 16.2559L83.2184 15.5802L83.7693 16.2559C83.8671 16.3755 84.009 16.4377 84.1526 16.4377C84.2623 16.4377 84.3726 16.4015 84.4645 16.3267C84.6759 16.1542 84.7075 15.843 84.5349 15.6316L83.8559 14.7988Z" fill="#535353"/>
<path d="M83.8559 14.7988L81.6781 13.0231L80.2303 14.7988L81.6781 16.5745L83.8559 14.7988ZM84.5349 13.966L86.7128 15.7417L86.7135 15.7408L84.5349 13.966ZM84.4645 13.2708L86.2429 11.0953L86.2376 11.0909L84.4645 13.2708ZM83.7693 13.3413L81.5954 11.5608L81.5914 11.5657L83.7693 13.3413ZM83.2184 14.017L81.0405 15.7927L83.2184 18.4639L85.3963 15.7927L83.2184 14.017ZM82.6675 13.3413L84.8454 11.5657L84.8444 11.5645L82.6675 13.3413ZM81.9723 13.2708L80.1968 11.0929L80.1955 11.0939L81.9723 13.2708ZM81.9019 13.966L84.0797 12.1903L84.0788 12.1892L81.9019 13.966ZM82.5809 14.7988L84.7587 16.5745L86.2065 14.7988L84.7587 13.0231L82.5809 14.7988ZM81.9019 15.6316L79.724 13.8559L79.7233 13.8568L81.9019 15.6316ZM81.9723 16.3267L80.1939 18.5023L80.1989 18.5064L81.9723 16.3267ZM82.6675 16.2559L84.8447 18.0324L84.8454 18.0316L82.6675 16.2559ZM83.2184 15.5802L85.3963 13.8046L83.2184 11.1333L81.0405 13.8046L83.2184 15.5802ZM83.7693 16.2559L81.5914 18.0316L81.5945 18.0353L83.7693 16.2559ZM84.4645 16.3267L86.2379 18.5064L86.2413 18.5037L84.4645 16.3267ZM84.5349 15.6316L82.3571 17.4073L82.358 17.4084L84.5349 15.6316ZM86.0338 16.5745L86.7128 15.7417L82.3571 12.1903L81.6781 13.0231L86.0338 16.5745ZM86.7135 15.7408C87.8653 14.327 87.6535 12.2484 86.2429 11.0953L82.686 15.4464C81.6976 14.6384 81.5491 13.1822 82.3563 12.1912L86.7135 15.7408ZM86.2376 11.0909C84.8235 9.94075 82.7483 10.1532 81.5954 11.5608L85.9432 15.1218C85.1361 16.1072 83.6819 16.2565 82.6913 15.4508L86.2376 11.0909ZM81.5914 11.5657L81.0405 12.2414L85.3963 15.7927L85.9472 15.117L81.5914 11.5657ZM85.3963 12.2414L84.8454 11.5657L80.4896 15.117L81.0405 15.7927L85.3963 12.2414ZM84.8444 11.5645C83.6921 10.1527 81.6126 9.93869 80.1968 11.0929L83.7479 15.4488C82.7562 16.2572 81.2978 16.1071 80.4906 15.1181L84.8444 11.5645ZM80.1955 11.0939C78.7828 12.247 78.5703 14.3281 79.7249 15.7428L84.0788 12.1892C84.8884 13.181 84.7391 14.6398 83.7492 15.4478L80.1955 11.0939ZM79.724 15.7417L80.403 16.5745L84.7587 13.0231L84.0797 12.1903L79.724 15.7417ZM80.403 13.0231L79.724 13.8559L84.0797 17.4073L84.7587 16.5745L80.403 13.0231ZM79.7233 13.8568C78.5716 15.2706 78.7833 17.3492 80.1939 18.5023L83.7508 14.1511C84.7392 14.9591 84.8878 16.4154 84.0805 17.4064L79.7233 13.8568ZM80.1989 18.5064C80.8103 19.0038 81.5526 19.2477 82.2842 19.2477V13.6277C82.7965 13.6277 83.3182 13.7991 83.7458 14.147L80.1989 18.5064ZM82.2842 19.2477C83.2337 19.2477 84.1897 18.8351 84.8447 18.0324L80.4903 14.4795C80.9496 13.9165 81.6212 13.6277 82.2842 13.6277V19.2477ZM84.8454 18.0316L85.3963 17.3558L81.0405 13.8046L80.4896 14.4803L84.8454 18.0316ZM81.0405 17.3558L81.5914 18.0316L85.9472 14.4803L85.3963 13.8046L81.0405 17.3558ZM81.5945 18.0353C82.2459 18.8314 83.1981 19.2477 84.1526 19.2477V13.6277C84.82 13.6277 85.4884 13.9195 85.9441 14.4765L81.5945 18.0353ZM84.1526 19.2477C84.8842 19.2477 85.6266 19.0038 86.2379 18.5064L82.691 14.147C83.1186 13.7991 83.6403 13.6277 84.1526 13.6277V19.2477ZM86.2413 18.5037C87.654 17.3506 87.8665 15.2694 86.7119 13.8548L82.358 17.4084C81.5485 16.4165 81.6977 14.9578 82.6877 14.1498L86.2413 18.5037ZM86.7128 13.8559L86.0338 13.0231L81.6781 16.5745L82.3571 17.4073L86.7128 13.8559Z" fill="#535353" mask="url(#path-20-inside-9_2012_75)"/>
<mask id="path-22-inside-10_2012_75" fill="white">
<path d="M89.4536 14.7988L90.133 13.966C90.3052 13.7546 90.2739 13.4434 90.0625 13.2712C89.8508 13.0987 89.5396 13.1306 89.3677 13.342L88.8168 14.0177L88.2659 13.342C88.0936 13.1306 87.7821 13.0983 87.5711 13.2712C87.3596 13.4434 87.3284 13.7549 87.5006 13.966L88.1799 14.7988L87.5006 15.6316C87.3284 15.843 87.3596 16.1542 87.5711 16.3264C87.6626 16.4012 87.7732 16.4374 87.8829 16.4374C88.0265 16.4374 88.1684 16.3755 88.2659 16.2556L88.8168 15.5799L89.3677 16.2556C89.4652 16.3755 89.6074 16.4374 89.7507 16.4374C89.8603 16.4374 89.971 16.4012 90.0625 16.3264C90.2739 16.1542 90.3052 15.8427 90.133 15.6316L89.4536 14.7988Z"/>
</mask>
<path d="M89.4536 14.7988L90.133 13.966C90.3052 13.7546 90.2739 13.4434 90.0625 13.2712C89.8508 13.0987 89.5396 13.1306 89.3677 13.342L88.8168 14.0177L88.2659 13.342C88.0936 13.1306 87.7821 13.0983 87.5711 13.2712C87.3596 13.4434 87.3284 13.7549 87.5006 13.966L88.1799 14.7988L87.5006 15.6316C87.3284 15.843 87.3596 16.1542 87.5711 16.3264C87.6626 16.4012 87.7732 16.4374 87.8829 16.4374C88.0265 16.4374 88.1684 16.3755 88.2659 16.2556L88.8168 15.5799L89.3677 16.2556C89.4652 16.3755 89.6074 16.4374 89.7507 16.4374C89.8603 16.4374 89.971 16.4012 90.0625 16.3264C90.2739 16.1542 90.3052 15.8427 90.133 15.6316L89.4536 14.7988Z" fill="#535353"/>
<path d="M89.4536 14.7988L87.2762 13.0226L85.8273 14.7988L87.2762 16.575L89.4536 14.7988ZM90.133 13.966L92.3104 15.7422L92.3116 15.7408L90.133 13.966ZM90.0625 13.2712L88.2874 15.4495L88.2877 15.4498L90.0625 13.2712ZM89.3677 13.342L91.5456 15.1176L91.548 15.1147L89.3677 13.342ZM88.8168 14.0177L86.6389 15.7934L88.8168 18.4646L90.9947 15.7934L88.8168 14.0177ZM88.2659 13.342L86.0873 15.1168L86.088 15.1176L88.2659 13.342ZM87.5711 13.2712L89.3458 15.4498L89.3516 15.4451L87.5711 13.2712ZM87.5006 13.966L89.678 12.1898L89.6778 12.1896L87.5006 13.966ZM88.1799 14.7988L90.3574 16.575L91.8063 14.7988L90.3574 13.0226L88.1799 14.7988ZM87.5006 15.6316L85.3232 13.8554L85.322 13.8568L87.5006 15.6316ZM87.5711 16.3264L89.3483 14.1499L89.3458 14.1478L87.5711 16.3264ZM88.2659 16.2556L86.088 14.48L86.0857 14.4828L88.2659 16.2556ZM88.8168 15.5799L90.9947 13.8043L88.8168 11.133L86.6389 13.8043L88.8168 15.5799ZM89.3677 16.2556L91.5478 14.4828L91.5456 14.48L89.3677 16.2556ZM90.0625 16.3264L88.2877 14.1478L88.2852 14.1499L90.0625 16.3264ZM90.133 15.6316L87.9556 17.4078L87.9557 17.408L90.133 15.6316ZM91.6311 16.575L92.3104 15.7422L87.9556 12.1898L87.2762 13.0226L91.6311 16.575ZM92.3116 15.7408C93.4607 14.3303 93.256 12.2483 91.8373 11.0926L88.2877 15.4498C87.2919 14.6385 87.1497 13.179 87.9544 12.1912L92.3116 15.7408ZM91.8377 11.0929C90.4236 9.94055 88.3405 10.1512 87.1874 11.5693L91.548 15.1147C90.7387 16.11 89.278 16.2568 88.2874 15.4495L91.8377 11.0929ZM87.1898 11.5664L86.6389 12.2421L90.9947 15.7934L91.5456 15.1176L87.1898 11.5664ZM90.9947 12.2421L90.4438 11.5664L86.088 15.1176L86.6389 15.7934L90.9947 12.2421ZM90.4445 11.5672C89.2956 10.1569 87.211 9.93389 85.7905 11.0973L89.3516 15.4451C88.3533 16.2628 86.8917 16.1043 86.0873 15.1168L90.4445 11.5672ZM85.7963 11.0926C84.3784 12.2477 84.1717 14.3309 85.3233 15.7425L89.6778 12.1896C90.4851 13.179 90.3409 14.6392 89.3458 15.4498L85.7963 11.0926ZM85.3232 15.7422L86.0025 16.575L90.3574 13.0226L89.678 12.1898L85.3232 15.7422ZM86.0025 13.0226L85.3232 13.8554L89.678 17.4078L90.3574 16.575L86.0025 13.0226ZM85.322 13.8568C84.1729 15.2674 84.3776 17.3493 85.7963 18.505L89.3458 14.1478C90.3417 14.9591 90.4838 16.4187 89.6792 17.4064L85.322 13.8568ZM85.7938 18.503C86.4088 19.0052 87.1541 19.2474 87.8829 19.2474V13.6274C88.3923 13.6274 88.9164 13.7972 89.3483 14.1499L85.7938 18.503ZM87.8829 19.2474C88.8329 19.2474 89.7906 18.8345 90.446 18.0285L86.0857 14.4828C86.5462 13.9165 87.2201 13.6274 87.8829 13.6274V19.2474ZM90.4438 18.0313L90.9947 17.3555L86.6389 13.8043L86.088 14.48L90.4438 18.0313ZM86.6389 17.3555L87.1898 18.0313L91.5456 14.48L90.9947 13.8043L86.6389 17.3555ZM87.1876 18.0285C87.8436 18.8353 88.8021 19.2474 89.7507 19.2474V13.6274C90.4128 13.6274 91.0867 13.9157 91.5478 14.4828L87.1876 18.0285ZM89.7507 19.2474C90.4794 19.2474 91.2248 19.0051 91.8398 18.503L88.2852 14.1499C88.7171 13.7972 89.2412 13.6274 89.7507 13.6274V19.2474ZM91.8373 18.505C93.2552 17.3499 93.4619 15.2667 92.3102 13.8552L87.9557 17.408C87.1485 16.4186 87.2927 14.9585 88.2877 14.1478L91.8373 18.505ZM92.3104 13.8554L91.6311 13.0226L87.2762 16.575L87.9556 17.4078L92.3104 13.8554Z" fill="#535353" mask="url(#path-22-inside-10_2012_75)"/>
<path d="M89.6832 18.4503H82.2832C82.0102 18.4503 81.7893 18.6713 81.7893 18.9443C81.7893 19.2172 82.0102 19.4382 82.2832 19.4382H84.4181V20.4241C84.4181 21.6382 85.4059 22.6261 86.6197 22.6261C87.8335 22.6261 88.8217 21.6382 88.8217 20.4241V19.4382H89.6832C89.9558 19.4382 90.1771 19.2172 90.1771 18.9443C90.1771 18.6713 89.9558 18.4503 89.6832 18.4503ZM87.8338 20.4241C87.8338 21.0936 87.2895 21.6382 86.6197 21.6382C85.9503 21.6382 85.4059 21.0936 85.4059 20.4241V19.4382H87.8338V20.4241Z" fill="#535353"/>
</g>
<defs>
<clipPath id="clip0_2012_75">
<rect width="30" height="30" fill="white" transform="translate(71 8)"/>
</clipPath>
</defs>
</svg>
